<?xml version="1.0" standalone="no"?>
<!DOCTYPE svg PUBLIC "-//W3C//DTD SVG 20010904//EN"
 "http://www.w3.org/TR/2001/REC-SVG-20010904/DTD/svg10.dtd">
<svg version="1.0" xmlns="http://www.w3.org/2000/svg"
 width="1280.000000pt" height="1280.000000pt" viewBox="0 0 1280.000000 1280.000000"
 preserveAspectRatio="xMidYMid meet">
<g transform="translate(0.000000,1280.000000) scale(0.100000,-0.100000)"
fill="#000000" stroke="none">
<path d="M1260 10583 c-219 -34 -414 -128 -577 -277 -131 -120 -243 -302 -283
-462 -20 -78 -20 -107 -18 -2929 l3 -2850 33 -94 c50 -144 111 -239 232 -362
153 -156 297 -242 495 -296 l100 -28 3061 -3 c2417 -2 3064 -5 3071 -15 5 -6
24 -48 43 -92 192 -453 591 -785 1095 -909 130 -32 184 -41 395 -66 96 -11
328 -39 515 -61 187 -22 345 -38 352 -37 8 2 -44 35 -114 74 -71 39 -249 140
-398 224 -148 84 -358 200 -465 257 -107 58 -210 119 -228 136 -48 46 -78 101
-100 188 -24 89 -47 262 -39 283 5 14 186 16 1544 19 1665 3 1565 0 1723 55
314 109 577 382 663 687 l22 80 3 2775 c2 2072 0 2798 -8 2864 -27 204 -116
374 -281 538 -161 161 -370 269 -574 298 -67 9 -10206 13 -10265 3z m10296
-406 c165 -56 327 -194 401 -343 l38 -78 3 -2790 c3 -3149 11 -2854 -78 -2989
-80 -123 -201 -219 -348 -276 l-67 -26 -1737 -3 -1738 -2 0 -53 c0 -123 21
-442 36 -560 9 -70 14 -131 10 -134 -10 -10 -102 83 -168 171 -93 125 -162
274 -200 438 l-32 138 -3211 2 -3210 3 -69 28 c-171 68 -305 187 -378 333
l-43 87 -3 2794 -2 2793 21 63 c27 80 69 147 142 224 99 104 238 180 370 202
29 5 2293 8 5117 7 l5065 -1 81 -28z"/>
</g>
</svg>
